<?xml version="1.0" encoding="UTF-8"?>
<svg width="1400" height="1000" xmlns="http://www.w3.org/2000/svg">
  <defs>
    <style>
      .title { font-family: Arial, sans-serif; font-size: 24px; font-weight: bold; fill: #2c3e50; }
      .layer-title { font-family: Arial, sans-serif; font-size: 18px; font-weight: bold; fill: #34495e; }
      .component-title { font-family: Arial, sans-serif; font-size: 14px; font-weight: bold; fill: #2c3e50; }
      .component-desc { font-family: Arial, sans-serif; font-size: 11px; fill: #7f8c8d; }
      .flow-arrow { stroke: #3498db; stroke-width: 2; fill: none; marker-end: url(#arrowhead); }
      .data-flow { stroke: #e74c3c; stroke-width: 2; fill: none; marker-end: url(#arrowhead-red); }
      .dependency { stroke: #f39c12; stroke-width: 1.5; fill: none; stroke-dasharray: 5,5; }
    </style>
  </defs>
  
  <!-- Arrow markers -->
  <defs>
    <marker id="arrowhead" markerWidth="10" markerHeight="7" refX="9" refY="3.5" orient="auto">
      <polygon points="0 0, 10 3.5, 0 7" fill="#3498db"/>
    </marker>
    <marker id="arrowhead-red" markerWidth="10" markerHeight="7" refX="9" refY="3.5" orient="auto">
      <polygon points="0 0, 10 3.5, 0 7" fill="#e74c3c"/>
    </marker>
  </defs>
  
  <!-- Title -->
  <text x="700" y="30" text-anchor="middle" class="title">Project Manager - Code Flow Architecture</text>
  
  <!-- Layer 1: Entry Point -->
  <rect x="50" y="70" width="1300" height="80" fill="#f8f9fa" stroke="#dee2e6" stroke-width="2" rx="10"/>
  <text x="700" y="95" text-anchor="middle" class="layer-title">Entry Point Layer</text>
  
  <!-- Main App -->
  <rect x="600" y="110" width="200" height="30" fill="#e3f2fd" stroke="#2196f3" stroke-width="2" rx="5"/>
  <text x="700" y="130" text-anchor="middle" class="component-title">main.dart</text>
  
  <!-- Layer 2: Application Setup -->
  <rect x="50" y="170" width="1300" height="120" fill="#f1f8e9" stroke="#8bc34a" stroke-width="2" rx="10"/>
  <text x="700" y="195" text-anchor="middle" class="layer-title">Application Setup Layer</text>
  
  <!-- App Components -->
  <rect x="200" y="210" width="150" height="60" fill="#c8e6c9" stroke="#4caf50" stroke-width="2" rx="5"/>
  <text x="275" y="230" text-anchor="middle" class="component-title">ProjectManagerApp</text>
  <text x="275" y="245" text-anchor="middle" class="component-desc">MaterialApp Setup</text>
  <text x="275" y="260" text-anchor="middle" class="component-desc">Localization</text>
  
  <rect x="400" y="210" width="150" height="60" fill="#c8e6c9" stroke="#4caf50" stroke-width="2" rx="5"/>
  <text x="475" y="230" text-anchor="middle" class="component-title">MultiProvider</text>
  <text x="475" y="245" text-anchor="middle" class="component-desc">ProjectRepository</text>
  <text x="475" y="260" text-anchor="middle" class="component-desc">ProjectProvider</text>
  
  <rect x="600" y="210" width="150" height="60" fill="#c8e6c9" stroke="#4caf50" stroke-width="2" rx="5"/>
  <text x="675" y="230" text-anchor="middle" class="component-title">HiveBoxes</text>
  <text x="675" y="245" text-anchor="middle" class="component-desc">Database Init</text>
  <text x="675" y="260" text-anchor="middle" class="component-desc">Adapters Registration</text>
  
  <!-- Layer 3: Screens -->
  <rect x="50" y="310" width="1300" height="140" fill="#fff3e0" stroke="#ff9800" stroke-width="2" rx="10"/>
  <text x="700" y="335" text-anchor="middle" class="layer-title">Presentation Layer - Screens</text>
  
  <!-- Screen Components -->
  <rect x="100" y="350" width="140" height="80" fill="#ffe0b2" stroke="#ff9800" stroke-width="2" rx="5"/>
  <text x="170" y="370" text-anchor="middle" class="component-title">HomeScreen</text>
  <text x="170" y="385" text-anchor="middle" class="component-desc">Project List</text>
  <text x="170" y="400" text-anchor="middle" class="component-desc">Create Project</text>
  <text x="170" y="415" text-anchor="middle" class="component-desc">Navigation</text>
  
  <rect x="260" y="350" width="140" height="80" fill="#ffe0b2" stroke="#ff9800" stroke-width="2" rx="5"/>
  <text x="330" y="370" text-anchor="middle" class="component-title">ProjectDetailScreen</text>
  <text x="330" y="385" text-anchor="middle" class="component-desc">Tab Management</text>
  <text x="330" y="400" text-anchor="middle" class="component-desc">Project Info</text>
  <text x="330" y="415" text-anchor="middle" class="component-desc">CRUD Operations</text>
  
  <rect x="420" y="350" width="140" height="80" fill="#ffe0b2" stroke="#ff9800" stroke-width="2" rx="5"/>
  <text x="490" y="370" text-anchor="middle" class="component-title">NoteDetailScreen</text>
  <text x="490" y="385" text-anchor="middle" class="component-desc">Note Editing</text>
  <text x="490" y="400" text-anchor="middle" class="component-desc">Rich Text</text>
  
  <rect x="580" y="350" width="140" height="80" fill="#ffe0b2" stroke="#ff9800" stroke-width="2" rx="5"/>
  <text x="650" y="370" text-anchor="middle" class="component-title">TodoDetailScreen</text>
  <text x="650" y="385" text-anchor="middle" class="component-desc">Todo Management</text>
  <text x="650" y="400" text-anchor="middle" class="component-desc">Status Updates</text>
  
  <rect x="740" y="350" width="140" height="80" fill="#ffe0b2" stroke="#ff9800" stroke-width="2" rx="5"/>
  <text x="810" y="370" text-anchor="middle" class="component-title">RevisionDetailScreen</text>
  <text x="810" y="385" text-anchor="middle" class="component-desc">Version Control</text>
  <text x="810" y="400" text-anchor="middle" class="component-desc">Change Tracking</text>
  
  <rect x="900" y="350" width="180" height="80" fill="#ffe0b2" stroke="#ff9800" stroke-width="2" rx="5"/>
  <text x="990" y="370" text-anchor="middle" class="component-title">LongDescriptionEditor</text>
  <text x="990" y="385" text-anchor="middle" class="component-desc">Rich Text Editor</text>
  <text x="990" y="400" text-anchor="middle" class="component-desc">Quill Integration</text>
  
  <!-- Layer 4: Widgets -->
  <rect x="50" y="470" width="1300" height="160" fill="#f3e5f5" stroke="#9c27b0" stroke-width="2" rx="10"/>
  <text x="700" y="495" text-anchor="middle" class="layer-title">Presentation Layer - Widgets</text>
  
  <!-- Widget Components -->
  <rect x="100" y="510" width="120" height="100" fill="#e1bee7" stroke="#9c27b0" stroke-width="2" rx="5"/>
  <text x="160" y="530" text-anchor="middle" class="component-title">NotesTab</text>
  <text x="160" y="545" text-anchor="middle" class="component-desc">Notes List</text>
  <text x="160" y="560" text-anchor="middle" class="component-desc">QuillEditor</text>
  <text x="160" y="575" text-anchor="middle" class="component-desc">IgnorePointer</text>
  <text x="160" y="590" text-anchor="middle" class="component-desc">CRUD Forms</text>
  
  <rect x="240" y="510" width="120" height="100" fill="#e1bee7" stroke="#9c27b0" stroke-width="2" rx="5"/>
  <text x="300" y="530" text-anchor="middle" class="component-title">TodosTab</text>
  <text x="300" y="545" text-anchor="middle" class="component-desc">Todo List</text>
  <text x="300" y="560" text-anchor="middle" class="component-desc">Status Filter</text>
  <text x="300" y="575" text-anchor="middle" class="component-desc">Priority Display</text>
  <text x="300" y="590" text-anchor="middle" class="component-desc">CRUD Forms</text>
  
  <rect x="380" y="510" width="120" height="100" fill="#e1bee7" stroke="#9c27b0" stroke-width="2" rx="5"/>
  <text x="440" y="530" text-anchor="middle" class="component-title">RevisionsTab</text>
  <text x="440" y="545" text-anchor="middle" class="component-desc">Revision List</text>
  <text x="440" y="560" text-anchor="middle" class="component-desc">Version History</text>
  <text x="440" y="575" text-anchor="middle" class="component-desc">Status Tracking</text>
  <text x="440" y="590" text-anchor="middle" class="component-desc">CRUD Forms</text>
  
  <rect x="520" y="510" width="120" height="100" fill="#e1bee7" stroke="#9c27b0" stroke-width="2" rx="5"/>
  <text x="580" y="530" text-anchor="middle" class="component-title">Form Sheets</text>
  <text x="580" y="545" text-anchor="middle" class="component-desc">NoteFormSheet</text>
  <text x="580" y="560" text-anchor="middle" class="component-desc">TodoFormSheet</text>
  <text x="580" y="575" text-anchor="middle" class="component-desc">RevisionFormSheet</text>
  <text x="580" y="590" text-anchor="middle" class="component-desc">QuillEditor</text>
  
  <rect x="660" y="510" width="120" height="100" fill="#e1bee7" stroke="#9c27b0" stroke-width="2" rx="5"/>
  <text x="720" y="530" text-anchor="middle" class="component-title">UI Components</text>
  <text x="720" y="545" text-anchor="middle" class="component-desc">TabButton</text>
  <text x="720" y="560" text-anchor="middle" class="component-desc">EmptyState</text>
  <text x="720" y="575" text-anchor="middle" class="component-desc">ErrorSection</text>
  
  <!-- Layer 5: State Management -->
  <rect x="50" y="650" width="1300" height="120" fill="#e8f5e9" stroke="#4caf50" stroke-width="2" rx="10"/>
  <text x="700" y="675" text-anchor="middle" class="layer-title">State Management Layer</text>
  
  <!-- Provider Components -->
  <rect x="200" y="690" width="200" height="60" fill="#c8e6c9" stroke="#4caf50" stroke-width="2" rx="5"/>
  <text x="300" y="710" text-anchor="middle" class="component-title">ProjectProvider</text>
  <text x="300" y="725" text-anchor="middle" class="component-desc">Global State Management</text>
  <text x="300" y="740" text-anchor="middle" class="component-desc">Project List State</text>
  
  <rect x="450" y="690" width="200" height="60" fill="#c8e6c9" stroke="#4caf50" stroke-width="2" rx="5"/>
  <text x="550" y="710" text-anchor="middle" class="component-title">ProjectDetailProvider</text>
  <text x="550" y="725" text-anchor="middle" class="component-desc">Detail Screen State</text>
  <text x="550" y="740" text-anchor="middle" class="component-desc">CRUD Operations</text>
  
  <rect x="700" y="690" width="200" height="60" fill="#c8e6c9" stroke="#4caf50" stroke-width="2" rx="5"/>
  <text x="800" y="710" text-anchor="middle" class="component-title">ChangeNotifier</text>
  <text x="800" y="725" text-anchor="middle" class="component-desc">State Updates</text>
  <text x="800" y="740" text-anchor="middle" class="component-desc">UI Rebuilds</text>
  
  <!-- Layer 6: Data Access -->
  <rect x="50" y="790" width="1300" height="120" fill="#fff8e1" stroke="#ffc107" stroke-width="2" rx="10"/>
  <text x="700" y="815" text-anchor="middle" class="layer-title">Data Access Layer</text>
  
  <!-- Repository Components -->
  <rect x="300" y="830" width="200" height="60" fill="#fff59d" stroke="#ffc107" stroke-width="2" rx="5"/>
  <text x="400" y="850" text-anchor="middle" class="component-title">ProjectRepository</text>
  <text x="400" y="865" text-anchor="middle" class="component-desc">CRUD Operations</text>
  <text x="400" y="880" text-anchor="middle" class="component-desc">Business Logic</text>
  
  <rect x="550" y="830" width="200" height="60" fill="#fff59d" stroke="#ffc107" stroke-width="2" rx="5"/>
  <text x="650" y="850" text-anchor="middle" class="component-title">HiveBoxes Service</text>
  <text x="650" y="865" text-anchor="middle" class="component-desc">Database Access</text>
  <text x="650" y="880" text-anchor="middle" class="component-desc">Box Management</text>
  
  <!-- Layer 7: Storage -->
  <rect x="50" y="930" width="1300" height="60" fill="#ffebee" stroke="#f44336" stroke-width="2" rx="10"/>
  <text x="700" y="955" text-anchor="middle" class="layer-title">Storage Layer</text>
  
  <!-- Storage Components -->
  <rect x="200" y="950" width="120" height="30" fill="#ffcdd2" stroke="#f44336" stroke-width="2" rx="5"/>
  <text x="260" y="970" text-anchor="middle" class="component-title">Projects Box</text>
  
  <rect x="340" y="950" width="120" height="30" fill="#ffcdd2" stroke="#f44336" stroke-width="2" rx="5"/>
  <text x="400" y="970" text-anchor="middle" class="component-title">Notes Box</text>
  
  <rect x="480" y="950" width="120" height="30" fill="#ffcdd2" stroke="#f44336" stroke-width="2" rx="5"/>
  <text x="540" y="970" text-anchor="middle" class="component-title">Todos Box</text>
  
  <rect x="620" y="950" width="120" height="30" fill="#ffcdd2" stroke="#f44336" stroke-width="2" rx="5"/>
  <text x="680" y="970" text-anchor="middle" class="component-title">Revisions Box</text>
  
  <rect x="760" y="950" width="120" height="30" fill="#ffcdd2" stroke="#f44336" stroke-width="2" rx="5"/>
  <text x="820" y="970" text-anchor="middle" class="component-title">Hive Database</text>
  
  <!-- Flow Arrows -->
  <!-- Main App to Setup -->
  <path d="M 700 140 L 700 170" class="flow-arrow"/>
  
  <!-- Setup to Screens -->
  <path d="M 475 270 L 475 310" class="flow-arrow"/>
  <path d="M 675 270 L 675 310" class="flow-arrow"/>
  
  <!-- Screens to Widgets -->
  <path d="M 330 430 L 330 470" class="flow-arrow"/>
  <path d="M 490 430 L 440 470" class="flow-arrow"/>
  <path d="M 650 430 L 580 470" class="flow-arrow"/>
  
  <!-- Widgets to State Management -->
  <path d="M 300 610 L 300 650" class="flow-arrow"/>
  <path d="M 580 610 L 550 650" class="flow-arrow"/>
  
  <!-- State Management to Data Access -->
  <path d="M 400 750 L 400 790" class="flow-arrow"/>
  <path d="M 650 750 L 650 790" class="flow-arrow"/>
  
  <!-- Data Access to Storage -->
  <path d="M 400 890 L 400 930" class="flow-arrow"/>
  <path d="M 650 890 L 650 930" class="flow-arrow"/>
  
  <!-- Data Flow Arrows (Red) -->
  <!-- Repository to Provider -->
  <path d="M 400 830 Q 350 810 300 750" class="data-flow"/>
  <path d="M 400 830 Q 475 810 550 750" class="data-flow"/>
  
  <!-- Provider to Screens -->
  <path d="M 300 690 Q 265 550 170 430" class="data-flow"/>
  <path d="M 550 690 Q 440 550 330 430" class="data-flow"/>
  
  <!-- Dependencies (Dashed Orange) -->
  <!-- HiveBoxes to Repository -->
  <path d="M 650 830 L 500 830" class="dependency"/>
  
  <!-- Models usage across layers -->
  <path d="M 1100 350 Q 1200 600 1100 830" class="dependency"/>
  
  <!-- Legend -->
  <rect x="1100" y="70" width="250" height="200" fill="#f8f9fa" stroke="#dee2e6" stroke-width="1" rx="5"/>
  <text x="1225" y="90" text-anchor="middle" class="component-title">Legend</text>
  <line x1="1110" y1="100" x2="1340" y2="100" stroke="#dee2e6" stroke-width="1"/>
  
  <line x1="1120" y1="120" x2="1150" y2="120" class="flow-arrow"/>
  <text x="1160" y="125" class="component-desc">Navigation Flow</text>
  
  <line x1="1120" y1="140" x2="1150" y2="140" class="data-flow"/>
  <text x="1160" y="145" class="component-desc">Data Flow</text>
  
  <line x1="1120" y1="160" x2="1150" y2="160" class="dependency"/>
  <text x="1160" y="165" class="component-desc">Dependencies</text>
  
  <rect x="1120" y="180" width="15" height="15" fill="#e3f2fd" stroke="#2196f3"/>
  <text x="1145" y="192" class="component-desc">Entry Point</text>
  
  <rect x="1120" y="200" width="15" height="15" fill="#ffe0b2" stroke="#ff9800"/>
  <text x="1145" y="212" class="component-desc">UI Layer</text>
  
  <rect x="1120" y="220" width="15" height="15" fill="#c8e6c9" stroke="#4caf50"/>
  <text x="1145" y="232" class="component-desc">State Management</text>
  
  <rect x="1120" y="240" width="15" height="15" fill="#ffcdd2" stroke="#f44336"/>
  <text x="1145" y="252" class="component-desc">Storage</text>
</svg>